<svg id="shocked" xmlns="http://www.w3.org/2000/svg" width="404.6" height="444.904" viewBox="0 0 404.6 444.904">
  <defs>
    <style>
      .cls-1 {
        fill: #ed3024;
      }

      .cls-2 {
        fill: #f0c419;
      }

      .cls-3 {
        fill: #253d59;
      }

      .cls-4 {
        fill: #2c3e50;
      }

      .cls-5 {
        fill: #802d40;
      }

      .cls-6 {
        fill: #df4d60;
      }

      .cls-7 {
        fill: #ff5364;
      }

      .cls-8 {
        fill: #2fa8cc;
      }

      .cls-9 {
        fill: #67b9cc;
      }

      .cls-10 {
        fill: #fff;
      }
    </style>
  </defs>
  <path id="Path_2" data-name="Path 2" class="cls-1" d="M71.766,399.8c-3.266,4.148-6.711,8.211-10.242,12.184A35.32,35.32,0,0,1,8.914,364.844a208.48,208.48,0,0,0,21.1-28.07Zm0,0" transform="translate(0 -53.148)"/>
  <path id="Path_3" data-name="Path 3" class="cls-2" d="M196.243,0C113.822-.014,41.06,59.428,16.939,146.476S23,327.765,91.305,378.7h.071l56.253,43.186v7.671c.022,8.462,6.226,15.319,13.887,15.342H279.58c7.661-.024,13.869-6.88,13.891-15.342V384.226c.624-.458,1.251-.842,1.875-1.3,3.055-2.145,6.112-4.372,9.029-6.673a.661.661,0,0,0,.068.231,15.769,15.769,0,0,0,3.614,5.217c.486.536,1.042,1.151,1.595,1.687a27.386,27.386,0,0,0,3.264,2.685,10.111,10.111,0,0,0,1.807,1.3,17.148,17.148,0,0,0,2.013,1.073,12.107,12.107,0,0,0,1.736.767c.9.384,1.807.692,2.71,1a24.249,24.249,0,0,0,7.013,1,26.629,26.629,0,0,0,20.7-10.2c35.325-43.661,55.116-100,55.7-158.553C405.421,153.414,362.916,0,196.243,0Zm0,0" transform="translate(0)"/>
  <path id="Path_4" data-name="Path 4" class="cls-3" d="M404.588,220.622c-.581,58.074-20.372,113.947-55.7,157.249a26.708,26.708,0,0,1-20.7,10.119,24.435,24.435,0,0,1-7.013-.99c-.9-.3-1.807-.609-2.71-.99a12.156,12.156,0,0,1-1.736-.761,17.2,17.2,0,0,1-2.013-1.064,10.108,10.108,0,0,1-1.807-1.293,27.339,27.339,0,0,1-3.264-2.663c-.553-.532-1.109-1.141-1.595-1.673a15.638,15.638,0,0,1-3.614-5.174.651.651,0,0,1-.068-.229c-2.916,2.282-5.974,4.491-9.029,6.618-.624.458-1.251.838-1.875,1.293a177.16,177.16,0,0,1-55.073,24.5h-.209l-.277-2.356c-7.01-18.448-23.429-30.5-41.668-30.584H189.3c-16.564.027-31.549,10.769-38.2,27.389a46.4,46.4,0,0,0-1.46,4.41,48.343,48.343,0,0,0-2.013,13.924v.074L91.376,375.588h-.071C23,325.068-7.182,231.6,16.939,145.271S113.822-.013,196.243,0C362.916,0,405.421,152.152,404.588,220.622Zm0,0" transform="translate(0)"/>
  <path id="Path_5" data-name="Path 5" class="cls-1" d="M384.527,432.992c-3.707,2.648-7.594,5.211-11.477,7.68a35.388,35.388,0,0,1-2.207-49.344A202.421,202.421,0,0,0,420.8,282.652,19.336,19.336,0,0,1,439.965,265.8,202.453,202.453,0,0,1,388.5,391.328,35.342,35.342,0,0,0,384.527,432.992Zm0,0" transform="translate(-99.542 -72.454)"/>
  <path id="Path_6" data-name="Path 6" class="cls-1" d="M189.7,464.156A52.965,52.965,0,0,0,141.148,432.4h-8.824a53.055,53.055,0,0,0-52.969,53.066v8.844A17.727,17.727,0,0,0,97.012,512h150.07Zm0,0" transform="translate(-15.614 -67.097)"/>
  <path id="Path_7" data-name="Path 7" class="cls-1" d="M370.668,442.172v52.172A17.708,17.708,0,0,1,353.012,512H202.941a17.7,17.7,0,0,1-17.652-17.656V485.43a51.574,51.574,0,0,1,2.559-16.156,50.623,50.623,0,0,1,1.855-5.117,53.087,53.087,0,0,1,48.551-31.781h8.828a57.637,57.637,0,0,1,52.965,35.488l.617,2.734A236.367,236.367,0,0,0,370.668,442.172Zm0,0" transform="translate(-60.899 -67.097)"/>
  <path id="Path_8" data-name="Path 8" class="cls-2" d="M384.613,433.258a41.766,41.766,0,0,0,4.594,6A18.233,18.233,0,0,1,384.613,433.258Zm0,0" transform="translate(-81.365 -67.097)"/>
  <path id="Path_9" data-name="Path 9" class="cls-4" d="M370.668,442.172v17.656a236.6,236.6,0,0,1-52.574,23.727,13.517,13.517,0,0,1-17.43-12.957A236.367,236.367,0,0,0,370.668,442.172Zm0,0" transform="translate(-73.02 -67.097)"/>
  <path id="Path_10" data-name="Path 10" class="cls-5" d="M202.941,256H220.6a52.964,52.964,0,0,1,52.965,52.965v9.012a35.31,35.31,0,0,1-35.309,35.313H185.289a35.311,35.311,0,0,1-35.312-35.312v-9.012A52.967,52.967,0,0,1,202.941,256Zm0,0" transform="translate(-41.449 -41.418)"/>
  <path id="Path_11" data-name="Path 11" class="cls-6" d="M273.563,308.965v9a35.3,35.3,0,0,1-35.309,35.313H211.77V335.625a35.323,35.323,0,0,1,35.313-35.4H272.77A47.19,47.19,0,0,1,273.563,308.965Zm0,0" transform="translate(-50.493 -43.892)"/>
  <path id="Path_12" data-name="Path 12" class="cls-7" d="M255.91,308.965v9A35.3,35.3,0,0,1,220.6,353.281H211.77V335.625a35.323,35.323,0,0,1,35.313-35.4h8.031A47.532,47.532,0,0,1,255.91,308.965Zm0,0" transform="translate(-48.587 -43.892)"/>
  <path id="Path_13" data-name="Path 13" class="cls-1" d="M178.719,62.5a49.69,49.69,0,0,1-11.508,26.289,60.871,60.871,0,0,1-23.57,17.582,70.97,70.97,0,0,1-28.578,5.367,87.408,87.408,0,0,1-14.117-1.512,109.315,109.315,0,0,1-13.332-4.215,3.323,3.323,0,0,1,.742-6.387l.4-.055c4.465-.617,8.754-.73,12.977-1,4.2-.664,8.367-.785,12.363-1.566a105.928,105.928,0,0,0,22.859-6.3,91.5,91.5,0,0,0,19.949-12.1,122.7,122.7,0,0,0,17.68-17.523l.2-.242a2.239,2.239,0,0,1,3.938,1.668Zm0,0" transform="translate(-21.916)"/>
  <path id="Path_14" data-name="Path 14" class="cls-1" d="M249.152,61.082a122.9,122.9,0,0,0,17.68,17.523A91.462,91.462,0,0,0,286.777,90.7a105.714,105.714,0,0,0,22.859,6.309c4,.781,8.168.9,12.363,1.566,4.223.273,8.508.383,12.977,1l.4.055a3.323,3.323,0,0,1,.746,6.387,108.886,108.886,0,0,1-13.332,4.215,87.361,87.361,0,0,1-14.117,1.512,70.97,70.97,0,0,1-28.578-5.367A60.9,60.9,0,0,1,256.523,88.8a49.72,49.72,0,0,1-11.508-26.289,2.238,2.238,0,0,1,3.93-1.676Zm0,0" transform="translate(-62.803)"/>
  <path id="Path_15" data-name="Path 15" class="cls-8" d="M388.324,282.484a35.311,35.311,0,0,1-70.621,0c0-19.5,35.309-52.969,35.309-52.969S388.324,262.98,388.324,282.484Zm0,0" transform="translate(-77.266 -36.344)"/>
  <path id="Path_16" data-name="Path 16" class="cls-9" d="M381.262,271.891a28.248,28.248,0,0,1-56.5,0c0-15.6,28.246-42.375,28.246-42.375S381.262,256.289,381.262,271.891Zm0,0" transform="translate(-76.534 -34.89)"/>
  <path id="Path_17" data-name="Path 17" class="cls-10" d="M185.289,175.914a44.139,44.139,0,1,0-44.141,44.223A44.182,44.182,0,0,0,185.289,175.914Zm0,0" transform="translate(-24.577 -20.861)"/>
  <path id="Path_18" data-name="Path 18" class="cls-4" d="M158.8,175.914a26.482,26.482,0,1,0-26.48,26.535A26.506,26.506,0,0,0,158.8,175.914Zm0,0" transform="translate(-24.75 -21.84)"/>
  <path id="Path_19" data-name="Path 19" class="cls-10" d="M326.531,175.914a44.182,44.182,0,1,1-12.93-31.27A44.19,44.19,0,0,1,326.531,175.914Zm0,0" transform="translate(-60.349 -20.858)"/>
  <path id="Path_20" data-name="Path 20" class="cls-4" d="M300.047,175.914a26.509,26.509,0,1,1-7.758-18.762A26.506,26.506,0,0,1,300.047,175.914Zm0,0" transform="translate(-57.773 -21.837)"/>
  <g id="Group_2" data-name="Group 2" transform="translate(98.237 129.702)">
    <path id="Path_21" data-name="Path 21" class="cls-10" d="M158.8,158.9a8.828,8.828,0,1,1-8.828-8.828A8.826,8.826,0,0,1,158.8,158.9Zm0,0" transform="translate(-141.148 -150.07)"/>
    <path id="Path_22" data-name="Path 22" class="cls-10" d="M300.047,158.9a8.828,8.828,0,1,1-8.828-8.828A8.826,8.826,0,0,1,300.047,158.9Zm0,0" transform="translate(-141.148 -150.07)"/>
  </g>
</svg>
