<?xml version="1.0" standalone="no"?>
<!DOCTYPE svg PUBLIC "-//W3C//DTD SVG 20010904//EN"
 "http://www.w3.org/TR/2001/REC-SVG-20010904/DTD/svg10.dtd">
<svg version="1.0" xmlns="http://www.w3.org/2000/svg"
 width="282.000000pt" height="272.000000pt" viewBox="0 0 282.000000 272.000000"
 preserveAspectRatio="xMidYMid meet">

<g transform="translate(0.000000,272.000000) scale(0.100000,-0.100000)"
fill="#000000" stroke="none">
<path d="M100 1458 c0 -651 4 -1200 9 -1221 14 -58 51 -105 105 -132 l50 -25
1166 0 1166 0 50 25 c54 27 91 74 105 132 5 21 9 570 9 1221 l0 1182 -1330 0
-1330 0 0 -1182z m327 -481 c-1 -210 -2 -38 -2 383 0 421 1 593 2 382 2 -210
2 -554 0 -765z m657 1094 c3 -4 -8 -39 -24 -77 -16 -38 -26 -71 -23 -74 3 -3
7 0 9 5 16 42 46 75 69 75 30 0 32 -18 5 -52 -10 -14 -16 -28 -13 -32 16 -16
44 -2 78 39 40 50 81 75 120 75 33 0 33 -29 -1 -69 -37 -44 -16 -38 35 9 23
22 47 40 52 40 18 0 8 -30 -21 -64 -51 -57 -156 -97 -175 -65 -5 7 -12 6 -23
-4 -38 -33 -60 -38 -91 -23 -26 14 -30 14 -46 -4 -22 -24 -41 -25 -53 -3 -9
15 -12 14 -37 -5 -33 -26 -51 -28 -63 -7 -7 13 -14 11 -46 -15 -45 -35 -66
-38 -91 -10 -35 38 7 97 98 135 51 21 55 2 7 -36 -55 -44 -51 -58 5 -18 42 30
46 31 63 16 18 -16 20 -16 34 0 8 10 27 45 42 78 32 70 75 112 90 86z m-314
-86 c0 -25 -38 -55 -70 -55 -16 0 -30 -4 -30 -9 0 -5 -3 -16 -6 -25 -5 -12 1
-14 30 -9 28 4 36 2 36 -9 0 -21 -20 -36 -55 -40 -24 -2 -30 -9 -36 -36 -8
-38 -7 -38 -34 -46 -34 -10 -49 7 -37 43 7 19 7 31 1 31 -5 0 -9 7 -9 15 0 8
7 15 15 15 15 0 40 38 31 47 -3 3 -20 -4 -39 -16 -41 -25 -51 -18 -31 20 18
36 42 48 134 69 97 23 100 23 100 5z m526 -328 c3 -2 2 -12 -2 -21 -4 -10 -18
-16 -40 -16 -43 0 -46 -24 -5 -38 99 -35 52 -144 -52 -123 -15 3 -28 9 -27 14
0 4 0 13 0 21 0 11 10 13 40 9 32 -5 40 -3 40 10 0 9 -18 26 -40 37 -35 18
-40 25 -40 55 0 27 6 38 28 50 24 13 86 15 98 2z m-667 -54 l30 -58 1 58 c0
54 1 57 25 57 l25 0 0 -100 0 -100 -27 0 c-24 0 -33 9 -63 66 l-35 66 -3 -66
c-3 -58 -5 -66 -22 -66 -19 0 -20 7 -20 100 l0 100 30 0 c26 0 33 -7 59 -57z
m241 37 c0 -16 -7 -20 -35 -20 -46 0 -49 -27 -2 -32 24 -2 33 -8 35 -25 3 -20
-1 -23 -32 -23 -29 0 -36 -4 -36 -20 0 -17 7 -20 40 -20 33 0 40 -3 40 -20 0
-18 -7 -20 -70 -20 l-70 0 0 100 0 100 65 0 c58 0 65 -2 65 -20z m85 -28 c10
-73 22 -83 30 -25 8 63 17 76 46 71 21 -3 25 -11 35 -63 l11 -60 13 63 c11 55
15 62 36 62 29 0 29 -4 0 -110 -21 -77 -25 -85 -49 -88 -28 -3 -27 -5 -46 83
l-8 40 -13 -62 c-12 -59 -14 -63 -41 -63 -31 0 -31 1 -62 138 l-14 62 27 0
c26 0 29 -4 35 -48z m-235 -482 c0 -83 -1 -90 -20 -90 -19 0 -20 7 -20 90 0
83 1 90 20 90 19 0 20 -7 20 -90z m330 75 c0 -8 -7 -15 -15 -15 -8 0 -15 -7
-15 -15 0 -8 5 -15 10 -15 6 0 10 -7 10 -15 0 -8 -4 -15 -10 -15 -5 0 -10 -20
-10 -45 0 -41 -2 -45 -25 -45 -23 0 -25 4 -27 48 -3 75 0 93 18 113 21 23 64
25 64 4z m-408 -12 c36 -33 8 -93 -44 -93 -13 0 -18 -8 -18 -30 0 -25 -4 -30
-25 -30 -25 0 -25 1 -25 78 0 43 3 82 7 85 13 14 87 7 105 -10z m991 -30 l27
-48 0 48 c0 40 3 47 20 47 18 0 20 -7 20 -85 0 -82 -1 -85 -23 -85 -16 0 -29
12 -47 47 l-25 48 -3 -48 c-3 -39 -6 -47 -23 -47 -17 0 -19 7 -19 85 0 82 1
85 23 85 18 0 30 -12 50 -47z m-706 17 c3 -11 9 -20 14 -20 5 0 9 -7 9 -15 0
-8 -4 -15 -10 -15 -5 0 -10 -13 -10 -30 0 -16 5 -30 10 -30 6 0 10 -7 10 -15
0 -23 -47 -19 -60 5 -18 33 -17 119 0 130 23 14 31 12 37 -10z m-86 -28 c4 -4
9 -30 11 -58 l5 -52 -53 -1 c-43 0 -54 3 -59 18 -9 29 5 52 36 58 16 3 26 9
23 14 -3 5 -16 6 -30 3 -18 -5 -24 -2 -24 9 0 9 8 18 18 20 20 6 64 -1 73 -11z
m300 7 c27 -14 38 -48 27 -82 -17 -47 -94 -51 -116 -5 -27 58 33 117 89 87z
m139 -14 c0 -7 -9 -17 -20 -20 -16 -5 -20 -15 -20 -46 0 -32 -3 -39 -20 -39
-16 0 -20 7 -20 38 0 20 -3 48 -7 61 -5 21 -3 23 20 19 14 -3 31 -1 38 3 16
10 29 2 29 -16z m120 12 c8 0 22 3 31 7 28 12 49 -20 49 -75 0 -42 -3 -49 -19
-49 -16 0 -20 8 -23 42 -4 59 -28 63 -28 4 0 -42 -2 -46 -25 -46 -23 0 -25 4
-25 46 0 59 -24 55 -28 -4 -3 -34 -7 -42 -23 -42 -17 0 -19 7 -19 59 l0 60 33
4 c17 2 39 2 47 -1 8 -3 22 -5 30 -5z m420 -7 c11 -11 20 -29 20 -40 0 -17 -7
-20 -41 -20 -24 0 -38 -4 -34 -10 3 -5 19 -10 36 -10 19 0 29 -5 29 -15 0 -26
-75 -20 -94 7 -22 32 -20 55 9 83 29 30 49 31 75 5z m299 11 c17 -11 4 -34
-15 -27 -20 8 -17 0 11 -28 21 -21 24 -29 15 -46 -14 -25 -90 -30 -90 -5 0 10
10 15 28 15 l27 1 -27 20 c-34 25 -35 43 -6 63 25 18 37 19 57 7z m-223 -38
l8 -38 9 38 c14 59 55 48 58 -16 1 -14 5 -8 11 16 7 26 15 37 29 37 23 0 23 1
3 -66 -18 -62 -46 -74 -66 -26 l-11 27 -6 -25 c-4 -15 -15 -26 -28 -28 -18 -3
-24 5 -37 49 -20 67 -20 69 4 69 14 0 21 -9 26 -37z m-1135 -286 c-5 -5 -17
-7 -26 -3 -14 5 -15 9 -5 21 10 12 16 13 27 4 9 -8 10 -16 4 -22z m169 2 c0
-24 4 -30 16 -25 8 3 24 1 35 -4 15 -9 19 -22 19 -65 0 -48 -2 -55 -20 -55
-17 0 -20 7 -20 45 0 33 -4 45 -15 45 -11 0 -15 -12 -15 -45 0 -41 -2 -45 -25
-45 -25 0 -25 1 -25 90 0 89 0 90 25 90 21 0 25 -5 25 -31z m275 -2 c21 -17
27 -32 27 -62 0 -56 -36 -85 -103 -85 l-49 0 0 85 0 85 49 0 c38 0 57 -6 76
-23z m929 2 c36 -28 37 -89 1 -124 -19 -20 -34 -25 -75 -25 l-50 0 0 85 0 85
49 0 c34 0 56 -6 75 -21z m-1294 -9 c0 -11 7 -20 15 -20 8 0 15 -5 15 -10 0
-6 -7 -13 -15 -16 -17 -7 -21 -64 -5 -64 6 0 10 -7 10 -16 0 -11 -8 -14 -27
-12 -25 3 -28 7 -31 46 -2 23 -7 42 -13 42 -14 0 -11 18 7 45 20 30 44 33 44
5z m1520 0 c0 -11 7 -20 15 -20 8 0 15 -5 15 -10 0 -6 -7 -13 -15 -16 -17 -7
-21 -64 -5 -64 6 0 10 -7 10 -16 0 -11 -8 -14 -27 -12 -25 3 -28 7 -31 46 -2
23 -7 42 -13 42 -14 0 -11 18 7 45 20 30 44 33 44 5z m-850 -23 c8 0 22 3 31
7 28 12 49 -20 49 -75 0 -42 -3 -49 -19 -49 -16 0 -20 8 -23 42 -4 59 -28 63
-28 4 0 -42 -2 -46 -25 -46 -23 0 -25 4 -25 46 0 59 -24 55 -28 -4 -3 -34 -7
-42 -23 -42 -17 0 -19 7 -19 59 l0 60 33 4 c17 2 39 2 47 -1 8 -3 22 -5 30 -5z
m215 1 c6 0 17 3 25 6 28 12 50 -16 57 -71 6 -52 5 -53 -21 -53 -24 0 -26 3
-26 46 0 59 -24 55 -28 -4 -3 -33 -7 -42 -22 -42 -15 0 -19 9 -22 42 -4 59
-28 63 -28 4 0 -39 -3 -46 -20 -46 -16 0 -20 7 -20 38 0 20 -3 48 -7 61 -5 22
-4 23 21 19 14 -3 29 -1 32 4 4 5 16 7 28 3 11 -3 26 -7 31 -7z m545 -8 c14
-14 20 -33 20 -65 l0 -44 -51 2 c-63 2 -84 24 -55 56 11 12 28 21 39 21 11 0
17 3 13 8 -4 4 -17 7 -29 7 -26 0 -34 22 -10 28 37 10 53 7 73 -13z m218 4
c18 -12 22 -25 22 -65 l0 -50 -52 3 c-47 3 -53 6 -56 26 -4 28 14 52 39 52 11
0 19 5 19 10 0 6 -11 8 -25 4 -18 -5 -25 -2 -25 9 0 28 44 35 78 11z m-1918
-19 c0 -31 17 -33 22 -2 2 13 11 23 24 25 17 2 23 -4 29 -30 l8 -33 6 30 c4
21 13 31 28 33 22 3 22 3 7 -50 -20 -66 -21 -68 -44 -68 -13 0 -22 10 -28 33
l-9 32 -7 -32 c-6 -25 -13 -33 -30 -33 -18 0 -24 10 -38 60 l-16 60 24 0 c19
0 24 -5 24 -25z m200 -35 c0 -57 -1 -60 -25 -60 -24 0 -25 3 -25 60 0 57 1 60
25 60 24 0 25 -3 25 -60z m530 15 c0 -33 4 -45 15 -45 11 0 15 12 15 45 0 41
2 45 25 45 24 0 25 -3 25 -59 l0 -59 -55 -1 c-30 0 -57 4 -60 9 -3 5 -9 32
-12 60 -6 49 -5 50 21 50 24 0 26 -3 26 -45z m566 20 c8 -31 22 -32 26 -2 2
14 11 23 26 25 28 4 28 2 -4 -81 -20 -51 -33 -71 -55 -83 -27 -13 -29 -13 -29
2 0 10 6 25 14 33 12 14 11 24 -9 74 l-24 57 25 0 c17 0 25 -7 30 -25z"/>
<path d="M1250 1975 c-20 -24 -6 -28 15 -5 10 11 13 20 8 20 -6 0 -16 -7 -23
-15z"/>
<path d="M580 1155 c0 -29 12 -32 31 -9 10 13 10 17 -2 25 -23 14 -29 11 -29
-16z"/>
<path d="M780 1080 c0 -5 7 -10 15 -10 8 0 15 5 15 10 0 6 -7 10 -15 10 -8 0
-15 -4 -15 -10z"/>
<path d="M1090 1099 c0 -24 4 -30 18 -27 10 2 18 14 20 31 3 22 -1 27 -17 27
-17 0 -21 -6 -21 -31z"/>
<path d="M1770 1130 c0 -5 7 -10 16 -10 8 0 12 5 9 10 -3 6 -10 10 -16 10 -5
0 -9 -4 -9 -10z"/>
<path d="M1127 823 c-4 -3 -7 -28 -7 -55 0 -41 3 -48 19 -48 27 0 51 26 51 55
0 37 -42 69 -63 48z"/>
<path d="M2050 774 c0 -51 2 -55 22 -52 12 2 29 15 37 29 13 24 13 29 -2 53
-10 14 -26 26 -37 26 -18 0 -20 -7 -20 -56z"/>
<path d="M2220 730 c0 -5 4 -10 9 -10 6 0 13 5 16 10 3 6 -1 10 -9 10 -9 0
-16 -4 -16 -10z"/>
<path d="M2440 730 c0 -5 4 -10 9 -10 6 0 13 5 16 10 3 6 -1 10 -9 10 -9 0
-16 -4 -16 -10z"/>
</g>
</svg>
